# xmcd
#
# Track frame offsets: 
#        150
#        17763
#        37315
#        57670
#        79266
#        92345
#        110626
#        127494
#        149158
#        170991
#
# Disc length: 2557 seconds
#
# Revision: 0
# Processed by: cddbd v1.5.2PL0 Copyright (c) Steve Scherf et al.
# Submitted via: ExactAudioCopy v1.3
#
DISCID=a109fb0a
DTITLE=Iron Horse - Take Me Home: The Bluegrass Tribute to Guns N' Ros
DTITLE=es
DYEAR=2007
DGENRE=Bluegrass
TTITLE0=Welcome to the Jungle
TTITLE1=Mr.  Brownstone
TTITLE2=Patience
TTITLE3=Dead Horse
TTITLE4=Yesterdays
TTITLE5=Sweet Child O' Mine
TTITLE6=Out Ta Get Me
TTITLE7=Think about Me
TTITLE8=Don't Cry
TTITLE9=Paradise City
EXTD=
EXTT0=
EXTT1=
EXTT2=
EXTT3=
EXTT4=
EXTT5=
EXTT6=
EXTT7=
EXTT8=
EXTT9=
PLAYORDER=
